<svg width="109" height="97" viewBox="0 0 109 97" fill="none" xmlns="http://www.w3.org/2000/svg">
<path id="Vector" d="M54.1877 39.0578C59.3732 39.0578 63.6023 43.2868 63.6023 48.5731C63.6023 53.6076 59.3732 57.887 54.1877 57.887C49.0021 57.887 44.7731 53.6076 44.7731 48.5731C44.7731 43.2868 49.0021 39.0578 54.1877 39.0578ZM30.8778 88.8493C34.0496 90.7625 40.9972 87.8424 49.0021 80.2906C46.3842 77.3203 43.8165 74.0982 41.4 70.725C37.3433 70.3339 33.31 69.729 29.3171 68.9126C26.7495 79.6865 27.706 87.0872 30.8778 88.8493ZM34.4523 59.9511L32.9923 57.3835C32.4385 58.8435 31.8847 60.3035 31.5323 61.7132C32.8916 62.0153 34.402 62.267 35.9627 62.5187L34.4523 59.9511ZM67.3782 56.1249L71.4561 48.5731L67.3782 41.0213C65.8678 38.353 64.2567 35.9867 62.7967 33.6205C60.0781 33.4695 57.2084 33.4695 54.1877 33.4695C51.167 33.4695 48.2973 33.4695 45.5786 33.6205C44.1186 35.9867 42.5076 38.353 40.9972 41.0213L36.9192 48.5731L40.9972 56.1249C42.5076 58.7932 44.1186 61.1594 45.5786 63.5256C48.2973 63.6767 51.167 63.6767 54.1877 63.6767C57.2084 63.6767 60.0781 63.6767 62.7967 63.5256C64.2567 61.1594 65.8678 58.7932 67.3782 56.1249ZM54.1877 22.2928C53.2311 23.4004 52.2242 24.5584 51.2173 25.9177H57.1581C56.1511 24.5584 55.1442 23.4004 54.1877 22.2928ZM54.1877 74.8533C55.1442 73.7457 56.1511 72.5878 57.1581 71.2285H51.2173C52.2242 72.5878 53.2311 73.7457 54.1877 74.8533ZM77.4472 8.29683C74.3258 6.3837 67.3782 9.30373 59.3732 16.8555C61.9912 19.8259 64.5588 23.048 66.9754 26.4211C71.1037 26.8239 75.1817 27.428 79.0583 28.2336C81.6259 17.4597 80.6693 10.0589 77.4472 8.29683ZM73.923 37.195L75.3831 39.7626C75.9369 38.3026 76.4907 36.8426 76.8431 35.433C75.4837 35.1309 73.9734 34.8792 72.4127 34.6274L73.923 37.195ZM81.2231 1.70159C88.6239 5.9306 89.4294 17.0569 86.308 30.046C99.0957 33.8219 108.309 40.0647 108.309 48.5731C108.309 57.0814 99.0957 63.3243 86.308 67.1002C89.4294 80.0892 88.6239 91.2156 81.2231 95.4446C73.8727 99.6736 63.854 94.8404 54.1877 85.6272C44.5214 94.8404 34.5027 99.6736 27.1019 95.4446C19.7515 91.2156 18.946 80.0892 22.0674 67.1002C9.27966 63.3243 0.0664673 57.0814 0.0664673 48.5731C0.0664673 40.0647 9.27966 33.8219 22.0674 30.046C18.946 17.0569 19.7515 5.9306 27.1019 1.70159C34.5027 -2.52742 44.5214 2.30573 54.1877 11.5189C63.854 2.30573 73.8727 -2.52742 81.2231 1.70159ZM79.7631 48.5731C81.4748 52.349 82.9852 56.1249 84.2438 59.9511C94.8163 56.7794 100.757 52.2483 100.757 48.5731C100.757 44.8979 94.8163 40.3668 84.2438 37.195C82.9852 41.0213 81.4748 44.7972 79.7631 48.5731ZM28.6123 48.5731C26.9005 44.7972 25.3902 41.0213 24.1315 37.195C13.559 40.3668 7.61826 44.8979 7.61826 48.5731C7.61826 52.2483 13.559 56.7794 24.1315 59.9511C25.3902 56.1249 26.9005 52.349 28.6123 48.5731ZM73.923 59.9511L72.4127 62.5187C73.9734 62.267 75.4837 62.0153 76.8431 61.7132C76.4907 60.3035 75.9369 58.8435 75.3831 57.3835L73.923 59.9511ZM59.3732 80.2906C67.3782 87.8424 74.3258 90.7625 77.4472 88.8493C80.6693 87.0872 81.6259 79.6865 79.0583 68.9126C75.1817 69.7181 71.1037 70.3223 66.9754 70.725C64.5588 74.0982 61.9912 77.3203 59.3732 80.2906ZM34.4523 37.195L35.9627 34.6274C34.402 34.8792 32.8916 35.1309 31.5323 35.433C31.8847 36.8426 32.4385 38.3026 32.9923 39.7626L34.4523 37.195ZM49.0021 16.8555C40.9972 9.30373 34.0496 6.3837 30.8778 8.29683C27.706 10.0589 26.7495 17.4597 29.3171 28.2336C33.31 27.4172 37.3433 26.8122 41.4 26.4211C43.8165 23.048 46.3842 19.8259 49.0021 16.8555Z" fill="#C77DFF"/>
</svg>
