<svg width="42" height="44" viewBox="0 0 42 44" fill="none" xmlns="http://www.w3.org/2000/svg">
<path id="Vector" d="M9.45978 9.27789C8.91174 7.87928 8.93366 6.28118 9.17699 4.81899C10.8522 5.32094 12.4256 6.11504 13.8244 7.16463C14.4382 7.63375 15.2428 7.78502 15.9925 7.55922C17.9163 6.98363 19.9143 6.69409 21.9224 6.69988C24.029 6.69988 26.0305 7.00679 27.8478 7.55703C28.5976 7.78502 29.4021 7.63156 30.0137 7.16244C31.4119 6.11307 32.9845 5.31899 34.659 4.8168C34.9023 6.27898 34.922 7.87709 34.3784 9.27351C34.0495 10.1153 34.2139 11.0843 34.8343 11.7726C36.4215 13.5329 37.2677 15.5563 37.2677 17.6608C37.2677 22.2951 32.9491 26.8395 26.013 28.2228C24.2768 28.5691 23.5994 30.7547 24.9278 32.0065C25.7806 32.8088 26.3067 33.94 26.3067 35.1983V41.7749C26.3067 42.3563 26.5377 42.9138 26.9488 43.325C27.3599 43.7361 27.9175 43.967 28.4989 43.967C29.0803 43.967 29.6379 43.7361 30.049 43.325C30.4601 42.9138 30.6911 42.3563 30.6911 41.7749V35.1983C30.6911 33.9487 30.428 32.7606 29.9589 31.6842C36.5727 29.389 41.652 24.222 41.652 17.6608C41.652 14.7079 40.591 11.994 38.8307 9.72072C39.291 7.92312 39.2494 6.11238 39.074 4.72253C38.9184 3.47737 38.7013 1.84639 37.8245 0.873055C36.5201 -0.571595 34.3608 0.278973 32.8263 0.802905C31.1802 1.35991 29.614 2.13007 28.1679 3.09374C26.127 2.57291 24.0286 2.31143 21.9224 2.31551C19.7433 2.31551 17.641 2.58954 15.6724 3.09593C14.2263 2.13224 12.6602 1.36208 11.014 0.805098C9.47951 0.278973 7.31802 -0.571595 6.01367 0.873055C5.11926 1.86392 4.93292 3.36557 4.77289 4.64142L4.76193 4.72472C4.58656 6.11676 4.5471 7.9297 5.00745 9.72948C3.25371 12.0006 2.19269 14.7101 2.19269 17.6608C2.19269 24.2198 7.27198 29.389 13.8858 31.6842C13.4071 32.7788 13.1579 33.9598 13.1536 35.1544L12.7853 35.229C11.2135 35.446 10.2073 35.2509 9.52336 34.9615C7.8573 34.2557 6.99796 32.4778 5.9501 31.1186C5.29682 30.2746 4.34541 29.2202 2.88542 28.7335C2.61222 28.6426 2.32378 28.6063 2.03656 28.6268C1.74934 28.6473 1.46898 28.7242 1.21147 28.853C0.691409 29.1133 0.296028 29.5694 0.112304 30.1212C-0.0714193 30.6729 -0.0284354 31.2751 0.2318 31.7951C0.492036 32.3152 0.948205 32.7106 1.49996 32.8943C2.7232 33.3021 3.56938 35.3978 4.34541 36.3273C5.1631 37.3094 6.25042 38.3353 7.80907 38.9974C9.30414 39.6331 11.0601 39.8589 13.1536 39.6024V41.7749C13.1536 42.3563 13.3846 42.9138 13.7957 43.325C14.2068 43.7361 14.7644 43.967 15.3458 43.967C15.9272 43.967 16.4848 43.7361 16.8959 43.325C17.307 42.9138 17.538 42.3563 17.538 41.7749V35.1983C17.538 33.94 18.0641 32.8088 18.9169 32.0065C20.2475 30.7525 19.568 28.5691 17.8317 28.2228C10.8935 26.8395 6.57706 22.2951 6.57706 17.6608C6.57706 15.5607 7.42105 13.5373 9.006 11.777C9.62639 11.0886 9.78861 10.1197 9.45978 9.27789Z" fill="#C77DFF"/>
</svg>
