<svg width="45" height="44" viewBox="0 0 45 44" fill="none" xmlns="http://www.w3.org/2000/svg">
<path id="Vector" d="M13.5175 0.0728455H31.9531C38.9762 0.0728455 44.6824 5.77909 44.6824 12.8022V31.2377C44.6824 34.6137 43.3413 37.8515 40.9541 40.2387C38.5669 42.6259 35.3291 43.967 31.9531 43.967H13.5175C6.49445 43.967 0.788208 38.2608 0.788208 31.2377V12.8022C0.788208 9.42614 2.12933 6.18839 4.51654 3.80118C6.90375 1.41397 10.1415 0.0728455 13.5175 0.0728455ZM13.0786 4.46226C10.9831 4.46226 8.97348 5.29468 7.49176 6.7764C6.01005 8.25812 5.17763 10.2678 5.17763 12.3632V31.6767C5.17763 36.0441 8.71111 39.5776 13.0786 39.5776H32.392C34.4875 39.5776 36.4971 38.7452 37.9788 37.2635C39.4606 35.7818 40.293 33.7721 40.293 31.6767V12.3632C40.293 7.99575 36.7595 4.46226 32.392 4.46226H13.0786ZM34.2575 7.75433C34.9851 7.75433 35.6829 8.04336 36.1974 8.55785C36.7119 9.07233 37.0009 9.77012 37.0009 10.4977C37.0009 11.2253 36.7119 11.9231 36.1974 12.4376C35.6829 12.9521 34.9851 13.2411 34.2575 13.2411C33.5299 13.2411 32.8321 12.9521 32.3177 12.4376C31.8032 11.9231 31.5141 11.2253 31.5141 10.4977C31.5141 9.77012 31.8032 9.07233 32.3177 8.55785C32.8321 8.04336 33.5299 7.75433 34.2575 7.75433ZM22.7353 11.0464C25.6457 11.0464 28.4368 12.2025 30.4948 14.2605C32.5527 16.3184 33.7089 19.1096 33.7089 22.0199C33.7089 24.9303 32.5527 27.7215 30.4948 29.7794C28.4368 31.8374 25.6457 32.9935 22.7353 32.9935C19.8249 32.9935 17.0338 31.8374 14.9758 29.7794C12.9179 27.7215 11.7618 24.9303 11.7618 22.0199C11.7618 19.1096 12.9179 16.3184 14.9758 14.2605C17.0338 12.2025 19.8249 11.0464 22.7353 11.0464ZM22.7353 15.4358C20.9891 15.4358 19.3144 16.1295 18.0796 17.3643C16.8449 18.599 16.1512 20.2737 16.1512 22.0199C16.1512 23.7662 16.8449 25.4409 18.0796 26.6756C19.3144 27.9104 20.9891 28.6041 22.7353 28.6041C24.4815 28.6041 26.1562 27.9104 27.391 26.6756C28.6257 25.4409 29.3194 23.7662 29.3194 22.0199C29.3194 20.2737 28.6257 18.599 27.391 17.3643C26.1562 16.1295 24.4815 15.4358 22.7353 15.4358Z" fill="#C77DFF"/>
</svg>
