<svg width="45" height="44" viewBox="0 0 45 44" fill="none" xmlns="http://www.w3.org/2000/svg">
<path id="Vector" d="M39.9111 0.0729065C41.2046 0.0729065 42.4451 0.586745 43.3598 1.50138C44.2744 2.41602 44.7882 3.65654 44.7882 4.95003V39.0899C44.7882 40.3834 44.2744 41.6239 43.3598 42.5386C42.4451 43.4532 41.2046 43.967 39.9111 43.967H5.77123C4.47774 43.967 3.23722 43.4532 2.32258 42.5386C1.40794 41.6239 0.894104 40.3834 0.894104 39.0899V4.95003C0.894104 3.65654 1.40794 2.41602 2.32258 1.50138C3.23722 0.586745 4.47774 0.0729065 5.77123 0.0729065H39.9111ZM38.6918 37.8706V24.9462C38.6918 22.8379 37.8543 20.8158 36.3634 19.3249C34.8726 17.8341 32.8505 16.9965 30.7421 16.9965C28.6693 16.9965 26.2552 18.2646 25.0846 20.1667V17.4599H18.2811V37.8706H25.0846V25.8485C25.0846 23.9708 26.5966 22.4345 28.4743 22.4345C29.3797 22.4345 30.2481 22.7942 30.8883 23.4345C31.5286 24.0747 31.8882 24.9431 31.8882 25.8485V37.8706H38.6918ZM10.3557 13.6313C11.4423 13.6313 12.4843 13.1997 13.2526 12.4314C14.0209 11.6631 14.4525 10.6211 14.4525 9.53453C14.4525 7.26667 12.6236 5.41336 10.3557 5.41336C9.26273 5.41336 8.21449 5.84755 7.44162 6.62042C6.66875 7.39329 6.23456 8.44153 6.23456 9.53453C6.23456 11.8024 8.08786 13.6313 10.3557 13.6313ZM13.7453 37.8706V17.4599H6.99051V37.8706H13.7453Z" fill="#C77DFF"/>
</svg>
