<svg width="96" height="95" viewBox="0 0 96 95" fill="none" xmlns="http://www.w3.org/2000/svg">
<path id="Vector" d="M16.1458 0.240234C11.9576 0.240234 7.94092 1.904 4.9794 4.86551C2.01789 7.82703 0.354126 11.8437 0.354126 16.0319V79.1987C0.354126 83.3869 2.01789 87.4036 4.9794 90.3651C7.94092 93.3266 11.9576 94.9903 16.1458 94.9903H79.3126C83.5008 94.9903 87.5174 93.3266 90.479 90.3651C93.4405 87.4036 95.1042 83.3869 95.1042 79.1987V16.0319C95.1042 11.8437 93.4405 7.82703 90.479 4.86551C87.5174 1.904 83.5008 0.240234 79.3126 0.240234H16.1458ZM54.7512 68.9604C58.5412 72.0134 62.3207 73.5137 66.1002 73.4768C68.4163 73.4768 70.1955 73.0557 71.4272 72.2029C72.0024 71.8296 72.4703 71.3129 72.7851 70.7037C73.0998 70.0945 73.2505 69.4139 73.2222 68.7288C73.2299 67.9815 73.0736 67.2417 72.7644 66.5614C72.4551 65.8812 72.0005 65.2769 71.4325 64.7914C70.1955 63.7123 67.8583 62.6332 64.421 61.5488C60.2941 60.3539 57.1042 58.8116 54.867 56.9166C52.6667 55.0216 51.5508 52.3791 51.5087 48.9839C51.5087 45.7782 52.8983 43.0989 55.6777 40.9354C58.3833 38.7772 61.8364 37.6928 66.0475 37.6928C71.9115 37.6928 76.6227 39.1194 80.1706 41.9777L76.1174 48.2891C74.6581 47.154 72.9838 46.3266 71.1956 45.8572C69.5887 45.3197 67.91 45.0269 66.216 44.9886C64.2157 44.9886 62.6102 45.3571 61.41 46.0888C60.2151 46.8257 59.6203 47.789 59.6203 48.9839C59.6203 50.2999 60.352 51.4158 61.8154 52.3423C63.2893 53.2319 65.7949 54.2162 69.3427 55.2953C73.6275 56.5692 76.6806 58.2694 78.4914 60.3908C80.3074 62.5121 81.2128 65.2178 81.2128 68.4972C81.2128 71.8555 79.9232 74.7507 77.3333 77.1826C74.7856 79.5777 71.0798 80.8305 66.216 80.9463C59.8467 80.9463 54.5196 79.0355 50.2348 75.2139L54.7512 68.9604ZM25.6419 72.3188C26.8789 73.0925 28.3633 73.4768 30.1004 73.4768C31.9164 73.4768 33.4166 72.9557 34.6168 71.9134C35.8117 70.8343 36.4118 68.9604 36.4118 66.2969V38.3877H44.2287V67.8023C44.1129 72.3556 42.8022 75.6403 40.2913 77.6458C38.9213 78.8108 37.3241 79.6783 35.6012 80.1935C34.0053 80.6798 32.3477 80.9333 30.6794 80.9463C27.7843 80.9463 25.2155 80.4462 22.9783 79.4408C20.5833 78.3617 18.5777 76.4509 16.9564 73.7084L22.3993 69.2499C23.3995 70.6027 24.4838 71.6239 25.6419 72.3188Z" fill="#C77DFF"/>
</svg>
